<?xml version="1.0" encoding="UTF-8" standalone="no"?><!DOCTYPE svg PUBLIC "-//W3C//DTD SVG 1.1//EN" "http://www.w3.org/Graphics/SVG/1.1/DTD/svg11.dtd"><svg width="100%" height="100%" viewBox="0 0 111 111" version="1.1" xmlns="http://www.w3.org/2000/svg" xmlns:xlink="http://www.w3.org/1999/xlink" xml:space="preserve" style="fill-rule:evenodd;clip-rule:evenodd;stroke-linejoin:round;stroke-miterlimit:1.41421;"><g><path d="M110.512,55.316c0,30.474 -24.705,55.178 -55.179,55.178c-30.474,0 -55.178,-24.704 -55.178,-55.178c0,-30.475 24.704,-55.179 55.178,-55.179c30.474,0 55.179,24.705 55.179,55.179" style="fill:#413937;"/><path d="M56.236,79.882c0.799,-0.416 1.452,-0.742 2.089,-1.098c0.12,-0.068 0.262,-0.27 0.244,-0.385c-0.157,-0.978 -0.35,-1.952 -0.555,-3.054c-0.6,1.531 -1.156,2.951 -1.778,4.537m-16.86,-12.208c-2.404,0.504 -4.33,1.888 -5.751,3.327c-0.115,0.117 -0.206,0.416 -0.139,0.533c1.229,2.154 2.785,4.044 4.675,5.654c0.372,0.318 0.768,0.609 1.228,0.971c0.479,-3.571 0.491,-7.008 -0.013,-10.485m-7.818,5.519c-0.687,1.271 -1.366,2.416 -1.941,3.611c-0.93,1.936 -1.375,4.024 -1.33,6.149c0.025,1.118 0.363,2.29 0.822,3.322c0.633,1.42 1.826,2.335 3.553,2.274c1.147,-0.04 2.099,-0.617 2.896,-1.394c1.801,-1.754 2.692,-3.992 3.312,-6.356c-3.039,-2.153 -4.5,-3.417 -7.312,-7.606m-2.583,-27.303c-0.88,7.984 -0.181,15.64 3.103,23.011c0.463,-0.37 0.858,-0.718 1.286,-1.021c1.626,-1.152 3.322,-2.151 5.364,-2.383c0.112,-0.013 0.295,-0.325 0.272,-0.47c-0.12,-0.731 -0.284,-1.456 -0.456,-2.178c-0.984,-4.119 -2.492,-8.02 -4.792,-11.596c-1.29,-2.005 -2.804,-3.804 -4.777,-5.363m30.102,35.528c-1.269,0.509 -2.503,0.993 -3.724,1.508c-0.158,0.066 -0.305,0.275 -0.361,0.448c-0.51,1.599 -1.032,3.195 -1.487,4.81c-1.021,3.628 -1.8,7.304 -1.615,11.1c0.049,1.001 0.279,2.028 0.628,2.967c0.207,0.554 0.739,1.074 1.254,1.407c0.972,0.626 1.946,0.169 2.816,-0.338c1.665,-0.973 2.612,-2.521 3.197,-4.306c0.455,-1.385 0.742,-2.806 0.728,-4.277c-0.013,-1.503 0.079,-3.015 -0.041,-4.508c-0.128,-1.599 -0.435,-3.186 -0.69,-4.773c-0.216,-1.351 -0.469,-2.696 -0.705,-4.038m-36.174,-37.972c-0.277,0.007 -0.812,-0.049 -1.141,0.009c-2.193,0.396 -4.006,1.424 -5.507,3.105c-1.214,1.361 -2.057,2.904 -2.728,4.565c-1.157,2.86 -1.501,5.855 -1.238,8.899c0.197,2.276 0.895,4.427 2.047,6.434c1.303,2.27 3.026,4.148 5.14,5.651c2.333,1.658 4.941,2.682 7.803,2.993c0.125,0.014 0.322,-0.11 0.397,-0.226c0.794,-1.233 1.562,-2.483 2.358,-3.715c0.164,-0.253 0.214,-0.426 0.066,-0.724c-0.416,-0.84 -0.827,-1.691 -1.142,-2.574c-1.074,-3.006 -1.993,-6.056 -2.293,-9.255c-0.174,-1.847 -0.386,-3.694 -0.458,-5.544c-0.06,-1.529 0.027,-3.065 0.111,-4.595c0.061,-1.118 0.243,-2.23 0.325,-3.348c0.02,-0.271 -0.07,-0.738 -0.236,-0.805c-1.159,-0.471 -1.942,-0.911 -3.504,-0.87m33.798,12.724c-0.774,2.442 -1.686,4.804 -3.007,6.993c-1.029,1.709 -2.229,3.25 -4.169,4.013c-1.053,0.414 -2.137,0.404 -3.171,0.012c-1.566,-0.592 -2.584,-1.814 -3.365,-3.238c-1.677,-3.061 -2.283,-6.417 -2.492,-9.836c-0.125,-2.042 -0.045,-4.109 0.115,-6.152c0.155,-1.971 0.474,-3.936 0.823,-5.885c0.703,-3.93 2.058,-7.658 3.789,-11.243c1.308,-2.71 2.876,-5.262 4.872,-7.542c1.456,-1.663 3.003,-3.189 5.074,-4.066c1.492,-0.634 3,-0.75 4.485,0.029c1.798,0.943 2.891,2.5 3.6,4.335c0.546,1.415 0.996,2.869 1.457,4.316c0.047,0.149 -0.07,0.434 -0.202,0.531c-0.095,0.069 -0.435,-0.013 -0.507,-0.128c-0.509,-0.808 -1.015,-1.625 -1.45,-2.475c-0.708,-1.382 -1.323,-2.789 -2.476,-3.917c-1.616,-1.581 -3.153,-1.388 -4.755,-0.425c-1.008,0.605 -1.906,1.43 -2.754,2.259c-0.816,0.798 -1.577,1.674 -2.232,2.608c-2.104,2.999 -3.704,6.269 -4.813,9.753c-0.709,2.228 -1.269,4.509 -1.793,6.79c-0.311,1.353 -0.524,2.747 -0.6,4.132c-0.125,2.27 -0.113,4.547 -0.136,6.822c-0.006,0.552 0.031,1.112 0.126,1.655c0.342,1.943 0.641,3.899 1.426,5.732c0.466,1.09 0.97,2.156 1.873,2.97c0.592,0.533 1.574,0.803 2.401,0.375c1.166,-0.604 1.846,-1.637 2.495,-2.677c1.154,-1.854 1.932,-3.878 2.533,-5.979c0.883,-3.081 1.42,-6.221 1.747,-9.404c0.072,-0.696 0.175,-1.406 0.398,-2.064c0.233,-0.686 0.799,-0.915 1.483,-0.78c0.504,0.101 0.867,0.647 0.87,1.325c0.003,0.903 -0.015,1.805 0.005,2.707c0.021,0.953 0.077,1.905 0.114,2.857c0.122,3.057 0.233,6.114 0.365,9.169c0.059,1.366 0.145,2.73 0.243,4.093c0.045,0.616 0.15,1.227 0.228,1.839c0.226,-0.266 0.352,-0.546 0.477,-0.828c1.393,-3.149 2.833,-6.277 4.165,-9.453c1.426,-3.404 2.838,-6.82 4.095,-10.289c1.423,-3.932 2.659,-7.932 3.272,-12.089c0.263,-1.787 0.603,-3.576 0.681,-5.374c0.078,-1.798 -0.006,-3.623 -0.242,-5.406c-0.28,-2.114 -0.943,-4.135 -2.095,-5.981c-1.385,-2.22 -3.257,-3.818 -5.7,-4.741c-2.603,-0.985 -5.286,-1.125 -8.017,-0.714c-2.28,0.343 -4.474,0.998 -6.509,2.071c-1.659,0.875 -3.331,1.784 -4.82,2.913c-1.504,1.139 -2.853,2.505 -4.151,3.884c-1.226,1.301 -2.407,2.675 -3.412,4.151c-1.79,2.626 -3.254,5.448 -4.473,8.391c-1.448,3.496 -2.493,7.109 -3.17,10.833c-0.071,0.391 0.07,0.559 0.304,0.716c1.661,1.107 3.016,2.526 4.286,4.052c1.901,2.285 3.324,4.853 4.502,7.552c1.411,3.234 2.338,6.625 2.951,10.105c0.432,0.113 1.073,0.267 1.464,0.429c0.573,0.236 0.915,0.438 1.456,0.741c0.122,0.068 0.303,0.271 0.242,0.424c-0.058,0.143 -0.292,0.132 -0.44,0.136c-0.479,0.017 -0.96,-0.005 -1.439,0.007c-0.34,0.009 -0.68,0.05 -0.968,0.072c0.135,1.757 0.307,3.387 0.371,5.023c0.043,1.108 -0.046,2.224 -0.11,3.335c-0.051,0.886 -0.12,1.772 -0.237,2.651c-0.153,1.141 -0.177,1.139 0.888,1.648c0.036,0.017 0.065,0.048 0.101,0.064c1.707,0.745 3.497,1.163 5.35,1.228c1.176,0.042 2.363,-0.006 3.532,-0.128c0.663,-0.069 1.43,-0.001 1.779,-0.911c1.169,-3.045 2.41,-6.062 3.608,-9.096c0.162,-0.411 0.314,-0.857 0.321,-1.29c0.01,-0.543 -0.173,-1.085 -0.208,-1.632c-0.137,-2.115 -0.248,-4.232 -0.369,-6.348c-0.011,-0.198 -0.035,-0.394 -0.045,-0.592c-0.065,-1.307 -0.142,-2.614 -0.181,-3.921c-0.012,-0.378 0.091,-0.758 0.141,-1.137m32.709,-38.182c1.019,1.821 1.499,3.162 2.18,5.536c0.372,1.294 0.679,3.027 0.756,4.371c0.044,0.772 0.078,1.547 0.109,2.315c0.089,2.148 0.232,4.065 0.007,6.149c-0.413,3.819 -1.064,7.379 -1.999,11.332c-0.611,2.584 -1.788,5.258 -2.582,7.79c-0.9,2.869 -2.405,6.227 -3.457,9.043c-1.32,3.534 -2.531,6.663 -3.447,10.275c-0.639,2.517 -1.079,5.09 -1.49,7.657c-0.274,1.71 -0.348,3.451 -0.497,5.179c-0.065,0.754 -0.516,1.183 -1.277,1.165c-0.706,-0.016 -1.138,-0.472 -1.123,-1.236c0.027,-1.313 0.113,-2.625 0.108,-3.936c-0.007,-1.953 -0.01,-3.908 -0.129,-5.856c-0.121,-1.984 -0.338,-3.966 -0.588,-5.939c-0.274,-2.16 -0.609,-4.312 -0.962,-6.461c-0.252,-1.539 -0.577,-3.067 -0.899,-4.756c-1.924,8.074 -6.01,14.564 -12.719,19.389c0.37,1.929 0.781,3.899 1.119,5.881c0.223,1.317 0.385,2.648 0.496,3.978c0.129,1.54 0.253,3.089 0.231,4.632c-0.032,2.288 -0.437,4.537 -1.364,6.642c-0.656,1.492 -1.593,2.842 -2.891,3.847c-1.432,1.108 -3.071,1.799 -4.932,1.56c-1.567,-0.202 -2.721,-1.08 -3.537,-2.44c-0.756,-1.262 -1.069,-2.638 -1.172,-4.076c-0.065,-0.911 -0.173,-1.83 -0.104,-2.734c0.112,-1.487 0.314,-2.971 0.544,-4.445c0.481,-3.078 1.356,-6.058 2.306,-9.018c0.012,-0.034 -0.008,-0.078 -0.026,-0.216c-3.785,0.501 -7.447,0.039 -10.952,-1.624c-0.259,0.732 -0.507,1.459 -0.773,2.181c-0.91,2.47 -2.359,4.581 -4.588,5.991c-2.248,1.423 -5.216,1.337 -7.368,-0.644c-1.603,-1.475 -2.308,-3.315 -2.58,-5.424c-0.311,-2.412 0.144,-4.693 0.92,-6.945c0.049,-0.143 0.073,-0.295 0.116,-0.469c-2.275,0.096 -4.331,-0.605 -6.3,-1.572c-2.237,-1.099 -4.195,-2.604 -5.84,-4.469c-2.246,-2.548 -3.72,-5.512 -4.336,-8.857c-0.36,-1.954 -0.34,-3.935 -0.164,-5.924c0.183,-2.072 0.678,-4.054 1.465,-5.963c0.988,-2.397 2.384,-4.501 4.424,-6.172c1.417,-1.161 2.996,-1.934 4.765,-2.285c1.873,-0.371 3.722,-0.164 5.505,0.544c0.2,0.08 0.405,0.146 0.654,0.235c0.2,-0.835 0.39,-1.67 0.602,-2.499c0.324,-1.266 0.638,-2.536 1.003,-3.791c1.037,-3.57 2.545,-6.954 4.342,-10.191c1.004,-1.808 2.198,-3.53 3.471,-5.162c1.287,-1.651 2.684,-3.243 4.201,-4.685c2.912,-2.771 6.216,-4.994 10.065,-6.273c1.719,-0.569 3.488,-0.992 5.245,-1.437c0.5,-0.126 1.038,-0.098 1.559,-0.14l2.64,0c0.492,0.077 -0.88,0 0,0c0.492,0.077 0.984,0.168 1.478,0.232c1.97,0.253 3.822,0.883 5.507,1.911c1.187,0.723 2.254,1.6 3.21,2.658c1.473,1.629 2.438,3.513 3.156,5.526c0.416,1.168 0.625,2.425 0.79,3.661c0.201,1.505 0.339,3.028 0.353,4.545c0.012,1.277 -0.162,2.559 -0.307,3.833c-0.131,1.149 -0.298,2.297 -0.515,3.433c-0.297,1.554 -0.59,3.115 -1.008,4.64c-0.592,2.163 -1.242,4.315 -1.967,6.438c-0.732,2.142 -1.53,4.266 -2.396,6.358c-1.591,3.846 -3.239,7.671 -4.894,11.492c-1.026,2.37 -2.043,4.749 -3.195,7.058c-0.568,1.139 -0.317,2.208 -0.174,3.312c0.147,1.125 0.369,2.241 0.564,3.36c0.035,0.203 0.095,0.403 0.154,0.645c2.358,-1.772 4.293,-3.876 5.951,-6.259c1.791,-2.574 3.235,-5.327 4.106,-8.334c0.634,-2.191 1.054,-4.445 1.542,-6.676c0.167,-0.764 0.225,-1.552 0.381,-2.319c0.056,-0.272 0.108,-0.36 0.239,-0.468c0.117,-0.098 0.265,-0.182 0.307,-0.186c0.977,-0.108 1.189,0.597 1.351,1.304c0.568,2.475 1.15,4.948 1.656,7.436c0.422,2.072 0.753,4.161 1.109,6.246c0.29,1.699 0.569,3.401 0.829,5.105c0.089,0.584 0.103,1.179 0.184,1.774c1.593,-6.918 4.026,-13.574 6.189,-20.314c0.703,-2.192 1.38,-4.399 1.92,-6.634c0.573,-2.374 1.02,-4.781 1.425,-7.189c0.288,-1.705 0.509,-3.432 0.595,-5.157c0.153,-3.06 0.244,-6.126 0.233,-9.19c-0.006,-1.569 -0.294,-3.136 -0.444,-4.706c-0.094,-0.983 -0.168,-1.967 -0.249,-2.951c-0.056,-0.69 -0.137,-1.008 0.332,-1.226c0.469,-0.219 0.851,0.589 0.851,0.589" style="fill:#fff;"/></g></svg>